<svg width="150" height="150" viewBox="0 0 150 150" fill="none" xmlns="http://www.w3.org/2000/svg">
  <circle cx="75" cy="75" r="70" fill="#8B4513" />
  <path d="M75 30C55 30 40 52 40 75C40 98 55 120 75 120C95 120 110 98 110 75C110 52 95 30 75 30Z" fill="#A0522D" />
  <path d="M45 65C45 65 55 85 75 85C95 85 105 65 105 65" stroke="#8B4513" stroke-width="5" />
  <ellipse cx="60" cy="60" rx="5" ry="7" fill="#2F4F4F" />
  <ellipse cx="90" cy="60" rx="5" ry="7" fill="#2F4F4F" />
  <path d="M60 40C60 40 65 35 75 35C85 35 90 40 90 40" stroke="#000000" stroke-width="2" />
  <rect x="55" y="40" width="40" height="10" fill="#000000" />
  <path d="M65 100C65 100 75 105 85 100" stroke="#000000" stroke-width="2" />
  <path d="M60 75L65 80L70 75" stroke="#000000" stroke-width="2" />
  <path d="M80 75L85 80L90 75" stroke="#000000" stroke-width="2" />
</svg>