<svg width="150" height="150" viewBox="0 0 150 150" fill="none" xmlns="http://www.w3.org/2000/svg">
  <circle cx="75" cy="75" r="70" fill="#7B3F00" />
  <path d="M75 30C55 30 40 52 40 75C40 98 55 120 75 120C95 120 110 98 110 75C110 52 95 30 75 30Z" fill="#5C3317" />
  <path d="M45 65C45 65 55 85 75 85C95 85 105 65 105 65" stroke="#4E3219" stroke-width="5" />
  <ellipse cx="60" cy="60" rx="5" ry="7" fill="#2E1901" />
  <ellipse cx="90" cy="60" rx="5" ry="7" fill="#2E1901" />
  <path d="M60 40C60 40 65 35 75 35C85 35 90 40 90 40" stroke="#000000" stroke-width="2" />
  <path d="M45 45C45 45 60 35 75 40C90 35 105 45 105 45" stroke="#2E1901" stroke-width="3" />
  <path d="M65 85C65 85 75 90 85 85" stroke="#000000" stroke-width="2" />
  <path d="M60 100C60 100 75 110 90 100" stroke="#000000" stroke-width="2" />
  <!-- Short hair -->
  <path d="M45 40C45 40 60 30 75 30C90 30 105 40 105 40" stroke="#2E1901" stroke-width="3" />
  <!-- Ears -->
  <path d="M35 65C35 65 30 60 30 70C30 80 35 75 35 75" stroke="#5C3317" stroke-width="4" fill="#5C3317" />
  <path d="M115 65C115 65 120 60 120 70C120 80 115 75 115 75" stroke="#5C3317" stroke-width="4" fill="#5C3317" />
</svg>