<svg width="150" height="150" viewBox="0 0 150 150" fill="none" xmlns="http://www.w3.org/2000/svg">
  <circle cx="75" cy="75" r="70" fill="#F5DEB3" />
  <path d="M75 30C55 30 40 52 40 75C40 98 55 120 75 120C95 120 110 98 110 75C110 52 95 30 75 30Z" fill="#FFDB99" />
  <path d="M35 70C35 70 45 85 75 85C105 85 115 70 115 70" stroke="#FFD580" stroke-width="5" />
  <path d="M50 60C50 60 60 50 75 50C90 50 100 60 100 60" stroke="#FFD580" stroke-width="3" />
  <ellipse cx="60" cy="65" rx="5" ry="7" fill="#87CEFA" />
  <ellipse cx="90" cy="65" rx="5" ry="7" fill="#87CEFA" />
  <path d="M55 40C55 40 65 25 75 25C85 25 95 40 95 40" stroke="#FFA500" stroke-width="10" />
  <path d="M70 85C70 85 75 90 80 85" stroke="#000000" stroke-width="2" />
  <path d="M65 100C65 100 75 105 85 100" stroke="#000000" stroke-width="2" />
</svg>